# xmcd
#
# Track frame offsets:
#	150
#	17170
#	32067
#	48617
#	59777
#	74842
#	89957
#	108642
#
# Disc length: 1655
#
# Revision: 3
# Processed by: cddbd v1.5.1PL0 Copyright (c) Steve Scherf et al.
# Submitted via: EasyCD 2.21 - (C) 1996 Greg Leichner
# Normalized: r1:TDELIM( - ),TSWAP
#
DISCID=82067508
DTITLE=Various Artist - Viva Nashvegas Winter 1995/96
DYEAR=1900
DGENRE=
TTITLE0=Martina McBride - Wild Angels
TTITLE1=BlackHawk - Like There Ain't No Yesterday
TTITLE2=Kenny Chesney - Me and You
TTITLE3=Alan Jackson - Tall, Tall Trees
TTITLE4=Keith Whitley - Wherever You Are Tonight
TTITLE5=Pam Tillis - Deep Down
TTITLE6=Alabama - Angels Among Us
TTITLE7=Prairie Oyster - Such A Lonely One
EXTD=
EXTT0=
EXTT1=
EXTT2=
EXTT3=
EXTT4=
EXTT5=
EXTT6=
EXTT7=
PLAYORDER=
